<?xml version="1.0" encoding="UTF-8" standalone="no"?>
<svg version="1.1"
   xmlns="http://www.w3.org/2000/svg" xmlns:xlink="http://www.w3.org/1999/xlink" xmlns:a="http://ns.adobe.com/AdobeSVGViewerExtensions/3.0/"
   x="0px" y="0px" width="229.6px" height="161.9px" viewBox="0 0 229.6 161.9" enable-background="new 0 0 229.6 161.9"
   xml:space="preserve">
<defs>
</defs>
<g>
  <path fill="#F6F9FA" d="M85.2,31c-25.9,7.9-39.5,25.4-38.4,50.2C63.2,85.7,79,99.3,79,119.6v4.5c0,21.4-15.2,37.8-38.4,37.8
    C15.8,161.9,0,142.7,0,112.3l0-5.6c0-38.4,10.2-64.9,28.2-82.4C42.9,9,64.9,0,81.2,0c11.8,0,17.5,6.8,17.5,15.8
    C98.7,23.7,93.1,28.8,85.2,31z M216,31c-25.9,7.9-39.5,25.4-38.4,50.2c16.4,4.5,32.2,18.1,32.2,38.4v4.5
    c0,21.4-15.2,37.8-38.4,37.8c-24.8,0-40.6-19.2-40.6-49.6v-5.6c0-38.4,10.2-64.9,27.6-82.4C173.7,9,195.7,0,211.5,0
    c11.8,0,18.1,6.8,18.1,15.8C229.6,23.7,223.9,28.8,216,31z"/>
</g>
</svg>